<svg xmlns:xlink="http://www.w3.org/1999/xlink" width="1342" height="1315" xmlns="http://www.w3.org/2000/svg" version="1.1"><defs><clipPath id="sGLFVUSAQMuz"><path fill="none" stroke="none" d="M 0 0 L 1342 0 L 1342 1315 L 0 1315 L 0 0 Z" /></clipPath></defs><g clip-path="url(&quot;#sGLFVUSAQMuz&quot;)" transform="scale(1)"><g><rect fill="rgb(255, 255, 255)" fill-opacity="1" stroke="none" x="0" y="0" width="1342" height="1315" /><path fill="none" stroke="rgb(192, 192, 192)" stroke-linecap="round" stroke-linejoin="round" stroke-miterlimit="10" stroke-opacity="1" d="M 26.5 0.5 L 26.5 1315.5 M 26.5 0.5 L 26.5 1315.5 M 178.5 0.5 L 178.5 1315.5 M 254.5 0.5 L 254.5 1315.5 M 330.5 0.5 L 330.5 1315.5 M 406.5 0.5 L 406.5 1315.5 M 482.5 0.5 L 482.5 1315.5 M 558.5 0.5 L 558.5 1315.5 M 634.5 0.5 L 634.5 1315.5 M 710.5 0.5 L 710.5 1315.5 M 786.5 0.5 L 786.5 1315.5 M 862.5 0.5 L 862.5 1315.5 M 938.5 0.5 L 938.5 1315.5 M 1014.5 0.5 L 1014.5 1315.5 M 1090.5 0.5 L 1090.5 1315.5 M 1166.5 0.5 L 1166.5 1315.5 M 1242.5 0.5 L 1242.5 1315.5 M 1318.5 0.5 L 1318.5 1315.5" paint-order="fill stroke markers" /><path fill="none" stroke="rgb(192, 192, 192)" stroke-linecap="round" stroke-linejoin="round" stroke-miterlimit="10" stroke-opacity="0.235294" d="M 11.5 0.5 L 11.5 1315.5 M 41.5 0.5 L 41.5 1315.5 M 56.5 0.5 L 56.5 1315.5 M 72.5 0.5 L 72.5 1315.5 M 87.5 0.5 L 87.5 1315.5 M 117.5 0.5 L 117.5 1315.5 M 132.5 0.5 L 132.5 1315.5 M 148.5 0.5 L 148.5 1315.5 M 163.5 0.5 L 163.5 1315.5 M 193.5 0.5 L 193.5 1315.5 M 208.5 0.5 L 208.5 1315.5 M 223.5 0.5 L 223.5 1315.5 M 239.5 0.5 L 239.5 1315.5 M 269.5 0.5 L 269.5 1315.5 M 284.5 0.5 L 284.5 1315.5 M 299.5 0.5 L 299.5 1315.5 M 315.5 0.5 L 315.5 1315.5 M 345.5 0.5 L 345.5 1315.5 M 360.5 0.5 L 360.5 1315.5 M 375.5 0.5 L 375.5 1315.5 M 391.5 0.5 L 391.5 1315.5 M 421.5 0.5 L 421.5 1315.5 M 436.5 0.5 L 436.5 1315.5 M 451.5 0.5 L 451.5 1315.5 M 467.5 0.5 L 467.5 1315.5 M 497.5 0.5 L 497.5 1315.5 M 512.5 0.5 L 512.5 1315.5 M 527.5 0.5 L 527.5 1315.5 M 543.5 0.5 L 543.5 1315.5 M 573.5 0.5 L 573.5 1315.5 M 588.5 0.5 L 588.5 1315.5 M 603.5 0.5 L 603.5 1315.5 M 619.5 0.5 L 619.5 1315.5 M 649.5 0.5 L 649.5 1315.5 M 664.5 0.5 L 664.5 1315.5 M 679.5 0.5 L 679.5 1315.5 M 695.5 0.5 L 695.5 1315.5 M 725.5 0.5 L 725.5 1315.5 M 740.5 0.5 L 740.5 1315.5 M 755.5 0.5 L 755.5 1315.5 M 771.5 0.5 L 771.5 1315.5 M 801.5 0.5 L 801.5 1315.5 M 816.5 0.5 L 816.5 1315.5 M 831.5 0.5 L 831.5 1315.5 M 846.5 0.5 L 846.5 1315.5 M 877.5 0.5 L 877.5 1315.5 M 892.5 0.5 L 892.5 1315.5 M 907.5 0.5 L 907.5 1315.5 M 922.5 0.5 L 922.5 1315.5 M 953.5 0.5 L 953.5 1315.5 M 968.5 0.5 L 968.5 1315.5 M 983.5 0.5 L 983.5 1315.5 M 998.5 0.5 L 998.5 1315.5 M 1029.5 0.5 L 1029.5 1315.5 M 1044.5 0.5 L 1044.5 1315.5 M 1059.5 0.5 L 1059.5 1315.5 M 1074.5 0.5 L 1074.5 1315.5 M 1105.5 0.5 L 1105.5 1315.5 M 1120.5 0.5 L 1120.5 1315.5 M 1135.5 0.5 L 1135.5 1315.5 M 1150.5 0.5 L 1150.5 1315.5 M 1181.5 0.5 L 1181.5 1315.5 M 1196.5 0.5 L 1196.5 1315.5 M 1211.5 0.5 L 1211.5 1315.5 M 1226.5 0.5 L 1226.5 1315.5 M 1257.5 0.5 L 1257.5 1315.5 M 1272.5 0.5 L 1272.5 1315.5 M 1287.5 0.5 L 1287.5 1315.5 M 1302.5 0.5 L 1302.5 1315.5 M 1333.5 0.5 L 1333.5 1315.5" paint-order="fill stroke markers" /><path fill="none" stroke="rgb(192, 192, 192)" stroke-linecap="round" stroke-linejoin="round" stroke-miterlimit="10" stroke-opacity="1" d="M 0.5 35.5 L 1342.5 35.5 M 0.5 35.5 L 1342.5 35.5 M 0.5 111.5 L 1342.5 111.5 M 0.5 187.5 L 1342.5 187.5 M 0.5 263.5 L 1342.5 263.5 M 0.5 338.5 L 1342.5 338.5 M 0.5 414.5 L 1342.5 414.5 M 0.5 490.5 L 1342.5 490.5 M 0.5 566.5 L 1342.5 566.5 M 0.5 642.5 L 1342.5 642.5 M 0.5 718.5 L 1342.5 718.5 M 0.5 794.5 L 1342.5 794.5 M 0.5 870.5 L 1342.5 870.5 M 0.5 946.5 L 1342.5 946.5 M 0.5 1022.5 L 1342.5 1022.5 M 0.5 1098.5 L 1342.5 1098.5 M 0.5 1250.5 L 1342.5 1250.5" paint-order="fill stroke markers" /><path fill="none" stroke="rgb(192, 192, 192)" stroke-linecap="round" stroke-linejoin="round" stroke-miterlimit="10" stroke-opacity="0.235294" d="M 0.5 4.5 L 1342.5 4.5 M 0.5 4.5 L 1342.5 4.5 M 0.5 19.5 L 1342.5 19.5 M 0.5 50.5 L 1342.5 50.5 M 0.5 65.5 L 1342.5 65.5 M 0.5 80.5 L 1342.5 80.5 M 0.5 95.5 L 1342.5 95.5 M 0.5 126.5 L 1342.5 126.5 M 0.5 141.5 L 1342.5 141.5 M 0.5 156.5 L 1342.5 156.5 M 0.5 171.5 L 1342.5 171.5 M 0.5 202.5 L 1342.5 202.5 M 0.5 217.5 L 1342.5 217.5 M 0.5 232.5 L 1342.5 232.5 M 0.5 247.5 L 1342.5 247.5 M 0.5 278.5 L 1342.5 278.5 M 0.5 293.5 L 1342.5 293.5 M 0.5 308.5 L 1342.5 308.5 M 0.5 323.5 L 1342.5 323.5 M 0.5 354.5 L 1342.5 354.5 M 0.5 369.5 L 1342.5 369.5 M 0.5 384.5 L 1342.5 384.5 M 0.5 399.5 L 1342.5 399.5 M 0.5 430.5 L 1342.5 430.5 M 0.5 445.5 L 1342.5 445.5 M 0.5 460.5 L 1342.5 460.5 M 0.5 475.5 L 1342.5 475.5 M 0.5 506.5 L 1342.5 506.5 M 0.5 521.5 L 1342.5 521.5 M 0.5 536.5 L 1342.5 536.5 M 0.5 551.5 L 1342.5 551.5 M 0.5 582.5 L 1342.5 582.5 M 0.5 597.5 L 1342.5 597.5 M 0.5 612.5 L 1342.5 612.5 M 0.5 627.5 L 1342.5 627.5 M 0.5 658.5 L 1342.5 658.5 M 0.5 673.5 L 1342.5 673.5 M 0.5 688.5 L 1342.5 688.5 M 0.5 703.5 L 1342.5 703.5 M 0.5 734.5 L 1342.5 734.5 M 0.5 749.5 L 1342.5 749.5 M 0.5 764.5 L 1342.5 764.5 M 0.5 779.5 L 1342.5 779.5 M 0.5 810.5 L 1342.5 810.5 M 0.5 825.5 L 1342.5 825.5 M 0.5 840.5 L 1342.5 840.5 M 0.5 855.5 L 1342.5 855.5 M 0.5 886.5 L 1342.5 886.5 M 0.5 901.5 L 1342.5 901.5 M 0.5 916.5 L 1342.5 916.5 M 0.5 931.5 L 1342.5 931.5 M 0.5 962.5 L 1342.5 962.5 M 0.5 977.5 L 1342.5 977.5 M 0.5 992.5 L 1342.5 992.5 M 0.5 1007.5 L 1342.5 1007.5 M 0.5 1037.5 L 1342.5 1037.5 M 0.5 1053.5 L 1342.5 1053.5 M 0.5 1068.5 L 1342.5 1068.5 M 0.5 1083.5 L 1342.5 1083.5 M 0.5 1113.5 L 1342.5 1113.5 M 0.5 1129.5 L 1342.5 1129.5 M 0.5 1144.5 L 1342.5 1144.5 M 0.5 1159.5 L 1342.5 1159.5 M 0.5 1189.5 L 1342.5 1189.5 M 0.5 1205.5 L 1342.5 1205.5 M 0.5 1220.5 L 1342.5 1220.5 M 0.5 1235.5 L 1342.5 1235.5 M 0.5 1265.5 L 1342.5 1265.5 M 0.5 1281.5 L 1342.5 1281.5 M 0.5 1296.5 L 1342.5 1296.5 M 0.5 1311.5 L 1342.5 1311.5" paint-order="fill stroke markers" /><path fill="none" stroke="rgb(0, 0, 0)" stroke-miterlimit="10" stroke-opacity="1" d="M 102.5 2.5 L 102.5 1315.5" paint-order="fill stroke markers" /><path fill="none" stroke="rgb(0, 0, 0)" stroke-miterlimit="10" stroke-opacity="1" d="M 102.5 1.5 L 98.5 5.5" paint-order="fill stroke markers" /><path fill="none" stroke="rgb(0, 0, 0)" stroke-miterlimit="10" stroke-opacity="1" d="M 102.5 1.5 L 106.5 5.5" paint-order="fill stroke markers" /><path fill="none" stroke="rgb(0, 0, 0)" stroke-miterlimit="10" stroke-opacity="1" d="M 0.5 1174.5 L 1340.5 1174.5" paint-order="fill stroke markers" /><path fill="none" stroke="rgb(0, 0, 0)" stroke-miterlimit="10" stroke-opacity="1" d="M 1341.5 1174.5 L 1337.5 1170.5" paint-order="fill stroke markers" /><path fill="none" stroke="rgb(0, 0, 0)" stroke-miterlimit="10" stroke-opacity="1" d="M 1341.5 1174.5 L 1337.5 1178.5" paint-order="fill stroke markers" /><text font-family="geogebra-sans-serif, sans-serif" font-size="12px" font-style="normal" font-weight="normal" text-decoration="normal" dominant-baseline="alphabetic" fill="rgb(0, 0, 0)" fill-opacity="1" stroke="none" text-anchor="start" x="15" y="1190">–0.2</text><text font-family="geogebra-sans-serif, sans-serif" font-size="12px" font-style="normal" font-weight="normal" text-decoration="normal" dominant-baseline="alphabetic" fill="rgb(0, 0, 0)" fill-opacity="1" stroke="none" text-anchor="start" x="15" y="1190">–0.2</text><text font-family="geogebra-sans-serif, sans-serif" font-size="12px" font-style="normal" font-weight="normal" text-decoration="normal" dominant-baseline="alphabetic" fill="rgb(0, 0, 0)" fill-opacity="1" stroke="none" text-anchor="start" x="170" y="1190">0.2</text><text font-family="geogebra-sans-serif, sans-serif" font-size="12px" font-style="normal" font-weight="normal" text-decoration="normal" dominant-baseline="alphabetic" fill="rgb(0, 0, 0)" fill-opacity="1" stroke="none" text-anchor="start" x="170" y="1190">0.2</text><text font-family="geogebra-sans-serif, sans-serif" font-size="12px" font-style="normal" font-weight="normal" text-decoration="normal" dominant-baseline="alphabetic" fill="rgb(0, 0, 0)" fill-opacity="1" stroke="none" text-anchor="start" x="246" y="1190">0.4</text><text font-family="geogebra-sans-serif, sans-serif" font-size="12px" font-style="normal" font-weight="normal" text-decoration="normal" dominant-baseline="alphabetic" fill="rgb(0, 0, 0)" fill-opacity="1" stroke="none" text-anchor="start" x="246" y="1190">0.4</text><text font-family="geogebra-sans-serif, sans-serif" font-size="12px" font-style="normal" font-weight="normal" text-decoration="normal" dominant-baseline="alphabetic" fill="rgb(0, 0, 0)" fill-opacity="1" stroke="none" text-anchor="start" x="322" y="1190">0.6</text><text font-family="geogebra-sans-serif, sans-serif" font-size="12px" font-style="normal" font-weight="normal" text-decoration="normal" dominant-baseline="alphabetic" fill="rgb(0, 0, 0)" fill-opacity="1" stroke="none" text-anchor="start" x="322" y="1190">0.6</text><text font-family="geogebra-sans-serif, sans-serif" font-size="12px" font-style="normal" font-weight="normal" text-decoration="normal" dominant-baseline="alphabetic" fill="rgb(0, 0, 0)" fill-opacity="1" stroke="none" text-anchor="start" x="398" y="1190">0.8</text><text font-family="geogebra-sans-serif, sans-serif" font-size="12px" font-style="normal" font-weight="normal" text-decoration="normal" dominant-baseline="alphabetic" fill="rgb(0, 0, 0)" fill-opacity="1" stroke="none" text-anchor="start" x="398" y="1190">0.8</text><text font-family="geogebra-sans-serif, sans-serif" font-size="12px" font-style="normal" font-weight="normal" text-decoration="normal" dominant-baseline="alphabetic" fill="rgb(0, 0, 0)" fill-opacity="1" stroke="none" text-anchor="start" x="480" y="1190">1</text><text font-family="geogebra-sans-serif, sans-serif" font-size="12px" font-style="normal" font-weight="normal" text-decoration="normal" dominant-baseline="alphabetic" fill="rgb(0, 0, 0)" fill-opacity="1" stroke="none" text-anchor="start" x="480" y="1190">1</text><text font-family="geogebra-sans-serif, sans-serif" font-size="12px" font-style="normal" font-weight="normal" text-decoration="normal" dominant-baseline="alphabetic" fill="rgb(0, 0, 0)" fill-opacity="1" stroke="none" text-anchor="start" x="550" y="1190">1.2</text><text font-family="geogebra-sans-serif, sans-serif" font-size="12px" font-style="normal" font-weight="normal" text-decoration="normal" dominant-baseline="alphabetic" fill="rgb(0, 0, 0)" fill-opacity="1" stroke="none" text-anchor="start" x="550" y="1190">1.2</text><text font-family="geogebra-sans-serif, sans-serif" font-size="12px" font-style="normal" font-weight="normal" text-decoration="normal" dominant-baseline="alphabetic" fill="rgb(0, 0, 0)" fill-opacity="1" stroke="none" text-anchor="start" x="626" y="1190">1.4</text><text font-family="geogebra-sans-serif, sans-serif" font-size="12px" font-style="normal" font-weight="normal" text-decoration="normal" dominant-baseline="alphabetic" fill="rgb(0, 0, 0)" fill-opacity="1" stroke="none" text-anchor="start" x="626" y="1190">1.4</text><text font-family="geogebra-sans-serif, sans-serif" font-size="12px" font-style="normal" font-weight="normal" text-decoration="normal" dominant-baseline="alphabetic" fill="rgb(0, 0, 0)" fill-opacity="1" stroke="none" text-anchor="start" x="702" y="1190">1.6</text><text font-family="geogebra-sans-serif, sans-serif" font-size="12px" font-style="normal" font-weight="normal" text-decoration="normal" dominant-baseline="alphabetic" fill="rgb(0, 0, 0)" fill-opacity="1" stroke="none" text-anchor="start" x="702" y="1190">1.6</text><text font-family="geogebra-sans-serif, sans-serif" font-size="12px" font-style="normal" font-weight="normal" text-decoration="normal" dominant-baseline="alphabetic" fill="rgb(0, 0, 0)" fill-opacity="1" stroke="none" text-anchor="start" x="778" y="1190">1.8</text><text font-family="geogebra-sans-serif, sans-serif" font-size="12px" font-style="normal" font-weight="normal" text-decoration="normal" dominant-baseline="alphabetic" fill="rgb(0, 0, 0)" fill-opacity="1" stroke="none" text-anchor="start" x="778" y="1190">1.8</text><text font-family="geogebra-sans-serif, sans-serif" font-size="12px" font-style="normal" font-weight="normal" text-decoration="normal" dominant-baseline="alphabetic" fill="rgb(0, 0, 0)" fill-opacity="1" stroke="none" text-anchor="start" x="860" y="1190">2</text><text font-family="geogebra-sans-serif, sans-serif" font-size="12px" font-style="normal" font-weight="normal" text-decoration="normal" dominant-baseline="alphabetic" fill="rgb(0, 0, 0)" fill-opacity="1" stroke="none" text-anchor="start" x="860" y="1190">2</text><text font-family="geogebra-sans-serif, sans-serif" font-size="12px" font-style="normal" font-weight="normal" text-decoration="normal" dominant-baseline="alphabetic" fill="rgb(0, 0, 0)" fill-opacity="1" stroke="none" text-anchor="start" x="930" y="1190">2.2</text><text font-family="geogebra-sans-serif, sans-serif" font-size="12px" font-style="normal" font-weight="normal" text-decoration="normal" dominant-baseline="alphabetic" fill="rgb(0, 0, 0)" fill-opacity="1" stroke="none" text-anchor="start" x="930" y="1190">2.2</text><text font-family="geogebra-sans-serif, sans-serif" font-size="12px" font-style="normal" font-weight="normal" text-decoration="normal" dominant-baseline="alphabetic" fill="rgb(0, 0, 0)" fill-opacity="1" stroke="none" text-anchor="start" x="1006" y="1190">2.4</text><text font-family="geogebra-sans-serif, sans-serif" font-size="12px" font-style="normal" font-weight="normal" text-decoration="normal" dominant-baseline="alphabetic" fill="rgb(0, 0, 0)" fill-opacity="1" stroke="none" text-anchor="start" x="1006" y="1190">2.4</text><text font-family="geogebra-sans-serif, sans-serif" font-size="12px" font-style="normal" font-weight="normal" text-decoration="normal" dominant-baseline="alphabetic" fill="rgb(0, 0, 0)" fill-opacity="1" stroke="none" text-anchor="start" x="1082" y="1190">2.6</text><text font-family="geogebra-sans-serif, sans-serif" font-size="12px" font-style="normal" font-weight="normal" text-decoration="normal" dominant-baseline="alphabetic" fill="rgb(0, 0, 0)" fill-opacity="1" stroke="none" text-anchor="start" x="1082" y="1190">2.6</text><text font-family="geogebra-sans-serif, sans-serif" font-size="12px" font-style="normal" font-weight="normal" text-decoration="normal" dominant-baseline="alphabetic" fill="rgb(0, 0, 0)" fill-opacity="1" stroke="none" text-anchor="start" x="1158" y="1190">2.8</text><text font-family="geogebra-sans-serif, sans-serif" font-size="12px" font-style="normal" font-weight="normal" text-decoration="normal" dominant-baseline="alphabetic" fill="rgb(0, 0, 0)" fill-opacity="1" stroke="none" text-anchor="start" x="1158" y="1190">2.8</text><text font-family="geogebra-sans-serif, sans-serif" font-size="12px" font-style="normal" font-weight="normal" text-decoration="normal" dominant-baseline="alphabetic" fill="rgb(0, 0, 0)" fill-opacity="1" stroke="none" text-anchor="start" x="1240" y="1190">3</text><text font-family="geogebra-sans-serif, sans-serif" font-size="12px" font-style="normal" font-weight="normal" text-decoration="normal" dominant-baseline="alphabetic" fill="rgb(0, 0, 0)" fill-opacity="1" stroke="none" text-anchor="start" x="1240" y="1190">3</text><text font-family="geogebra-sans-serif, sans-serif" font-size="12px" font-style="normal" font-weight="normal" text-decoration="normal" dominant-baseline="alphabetic" fill="rgb(0, 0, 0)" fill-opacity="1" stroke="none" text-anchor="start" x="1310" y="1190">3.2</text><text font-family="geogebra-sans-serif, sans-serif" font-size="12px" font-style="normal" font-weight="normal" text-decoration="normal" dominant-baseline="alphabetic" fill="rgb(0, 0, 0)" fill-opacity="1" stroke="none" text-anchor="start" x="1310" y="1190">3.2</text><text font-family="geogebra-sans-serif, sans-serif" font-size="12px" font-style="normal" font-weight="normal" text-decoration="normal" dominant-baseline="alphabetic" fill="rgb(0, 0, 0)" fill-opacity="1" stroke="none" text-anchor="start" x="72" y="1255">–0.2</text><text font-family="geogebra-sans-serif, sans-serif" font-size="12px" font-style="normal" font-weight="normal" text-decoration="normal" dominant-baseline="alphabetic" fill="rgb(0, 0, 0)" fill-opacity="1" stroke="none" text-anchor="start" x="72" y="1255">–0.2</text><text font-family="geogebra-sans-serif, sans-serif" font-size="12px" font-style="normal" font-weight="normal" text-decoration="normal" dominant-baseline="alphabetic" fill="rgb(0, 0, 0)" fill-opacity="1" stroke="none" text-anchor="start" x="78" y="1103">0.2</text><text font-family="geogebra-sans-serif, sans-serif" font-size="12px" font-style="normal" font-weight="normal" text-decoration="normal" dominant-baseline="alphabetic" fill="rgb(0, 0, 0)" fill-opacity="1" stroke="none" text-anchor="start" x="78" y="1103">0.2</text><text font-family="geogebra-sans-serif, sans-serif" font-size="12px" font-style="normal" font-weight="normal" text-decoration="normal" dominant-baseline="alphabetic" fill="rgb(0, 0, 0)" fill-opacity="1" stroke="none" text-anchor="start" x="78" y="1027">0.4</text><text font-family="geogebra-sans-serif, sans-serif" font-size="12px" font-style="normal" font-weight="normal" text-decoration="normal" dominant-baseline="alphabetic" fill="rgb(0, 0, 0)" fill-opacity="1" stroke="none" text-anchor="start" x="78" y="1027">0.4</text><text font-family="geogebra-sans-serif, sans-serif" font-size="12px" font-style="normal" font-weight="normal" text-decoration="normal" dominant-baseline="alphabetic" fill="rgb(0, 0, 0)" fill-opacity="1" stroke="none" text-anchor="start" x="78" y="951">0.6</text><text font-family="geogebra-sans-serif, sans-serif" font-size="12px" font-style="normal" font-weight="normal" text-decoration="normal" dominant-baseline="alphabetic" fill="rgb(0, 0, 0)" fill-opacity="1" stroke="none" text-anchor="start" x="78" y="951">0.6</text><text font-family="geogebra-sans-serif, sans-serif" font-size="12px" font-style="normal" font-weight="normal" text-decoration="normal" dominant-baseline="alphabetic" fill="rgb(0, 0, 0)" fill-opacity="1" stroke="none" text-anchor="start" x="78" y="875">0.8</text><text font-family="geogebra-sans-serif, sans-serif" font-size="12px" font-style="normal" font-weight="normal" text-decoration="normal" dominant-baseline="alphabetic" fill="rgb(0, 0, 0)" fill-opacity="1" stroke="none" text-anchor="start" x="78" y="875">0.8</text><text font-family="geogebra-sans-serif, sans-serif" font-size="12px" font-style="normal" font-weight="normal" text-decoration="normal" dominant-baseline="alphabetic" fill="rgb(0, 0, 0)" fill-opacity="1" stroke="none" text-anchor="start" x="88" y="799">1</text><text font-family="geogebra-sans-serif, sans-serif" font-size="12px" font-style="normal" font-weight="normal" text-decoration="normal" dominant-baseline="alphabetic" fill="rgb(0, 0, 0)" fill-opacity="1" stroke="none" text-anchor="start" x="88" y="799">1</text><text font-family="geogebra-sans-serif, sans-serif" font-size="12px" font-style="normal" font-weight="normal" text-decoration="normal" dominant-baseline="alphabetic" fill="rgb(0, 0, 0)" fill-opacity="1" stroke="none" text-anchor="start" x="78" y="723">1.2</text><text font-family="geogebra-sans-serif, sans-serif" font-size="12px" font-style="normal" font-weight="normal" text-decoration="normal" dominant-baseline="alphabetic" fill="rgb(0, 0, 0)" fill-opacity="1" stroke="none" text-anchor="start" x="78" y="723">1.2</text><text font-family="geogebra-sans-serif, sans-serif" font-size="12px" font-style="normal" font-weight="normal" text-decoration="normal" dominant-baseline="alphabetic" fill="rgb(0, 0, 0)" fill-opacity="1" stroke="none" text-anchor="start" x="78" y="647">1.4</text><text font-family="geogebra-sans-serif, sans-serif" font-size="12px" font-style="normal" font-weight="normal" text-decoration="normal" dominant-baseline="alphabetic" fill="rgb(0, 0, 0)" fill-opacity="1" stroke="none" text-anchor="start" x="78" y="647">1.4</text><text font-family="geogebra-sans-serif, sans-serif" font-size="12px" font-style="normal" font-weight="normal" text-decoration="normal" dominant-baseline="alphabetic" fill="rgb(0, 0, 0)" fill-opacity="1" stroke="none" text-anchor="start" x="78" y="571">1.6</text><text font-family="geogebra-sans-serif, sans-serif" font-size="12px" font-style="normal" font-weight="normal" text-decoration="normal" dominant-baseline="alphabetic" fill="rgb(0, 0, 0)" fill-opacity="1" stroke="none" text-anchor="start" x="78" y="571">1.6</text><text font-family="geogebra-sans-serif, sans-serif" font-size="12px" font-style="normal" font-weight="normal" text-decoration="normal" dominant-baseline="alphabetic" fill="rgb(0, 0, 0)" fill-opacity="1" stroke="none" text-anchor="start" x="78" y="495">1.8</text><text font-family="geogebra-sans-serif, sans-serif" font-size="12px" font-style="normal" font-weight="normal" text-decoration="normal" dominant-baseline="alphabetic" fill="rgb(0, 0, 0)" fill-opacity="1" stroke="none" text-anchor="start" x="78" y="495">1.8</text><text font-family="geogebra-sans-serif, sans-serif" font-size="12px" font-style="normal" font-weight="normal" text-decoration="normal" dominant-baseline="alphabetic" fill="rgb(0, 0, 0)" fill-opacity="1" stroke="none" text-anchor="start" x="88" y="419">2</text><text font-family="geogebra-sans-serif, sans-serif" font-size="12px" font-style="normal" font-weight="normal" text-decoration="normal" dominant-baseline="alphabetic" fill="rgb(0, 0, 0)" fill-opacity="1" stroke="none" text-anchor="start" x="88" y="419">2</text><text font-family="geogebra-sans-serif, sans-serif" font-size="12px" font-style="normal" font-weight="normal" text-decoration="normal" dominant-baseline="alphabetic" fill="rgb(0, 0, 0)" fill-opacity="1" stroke="none" text-anchor="start" x="78" y="343">2.2</text><text font-family="geogebra-sans-serif, sans-serif" font-size="12px" font-style="normal" font-weight="normal" text-decoration="normal" dominant-baseline="alphabetic" fill="rgb(0, 0, 0)" fill-opacity="1" stroke="none" text-anchor="start" x="78" y="343">2.2</text><text font-family="geogebra-sans-serif, sans-serif" font-size="12px" font-style="normal" font-weight="normal" text-decoration="normal" dominant-baseline="alphabetic" fill="rgb(0, 0, 0)" fill-opacity="1" stroke="none" text-anchor="start" x="78" y="268">2.4</text><text font-family="geogebra-sans-serif, sans-serif" font-size="12px" font-style="normal" font-weight="normal" text-decoration="normal" dominant-baseline="alphabetic" fill="rgb(0, 0, 0)" fill-opacity="1" stroke="none" text-anchor="start" x="78" y="268">2.4</text><text font-family="geogebra-sans-serif, sans-serif" font-size="12px" font-style="normal" font-weight="normal" text-decoration="normal" dominant-baseline="alphabetic" fill="rgb(0, 0, 0)" fill-opacity="1" stroke="none" text-anchor="start" x="78" y="192">2.6</text><text font-family="geogebra-sans-serif, sans-serif" font-size="12px" font-style="normal" font-weight="normal" text-decoration="normal" dominant-baseline="alphabetic" fill="rgb(0, 0, 0)" fill-opacity="1" stroke="none" text-anchor="start" x="78" y="192">2.6</text><text font-family="geogebra-sans-serif, sans-serif" font-size="12px" font-style="normal" font-weight="normal" text-decoration="normal" dominant-baseline="alphabetic" fill="rgb(0, 0, 0)" fill-opacity="1" stroke="none" text-anchor="start" x="78" y="116">2.8</text><text font-family="geogebra-sans-serif, sans-serif" font-size="12px" font-style="normal" font-weight="normal" text-decoration="normal" dominant-baseline="alphabetic" fill="rgb(0, 0, 0)" fill-opacity="1" stroke="none" text-anchor="start" x="78" y="116">2.8</text><text font-family="geogebra-sans-serif, sans-serif" font-size="12px" font-style="normal" font-weight="normal" text-decoration="normal" dominant-baseline="alphabetic" fill="rgb(0, 0, 0)" fill-opacity="1" stroke="none" text-anchor="start" x="88" y="40">3</text><text font-family="geogebra-sans-serif, sans-serif" font-size="12px" font-style="normal" font-weight="normal" text-decoration="normal" dominant-baseline="alphabetic" fill="rgb(0, 0, 0)" fill-opacity="1" stroke="none" text-anchor="start" x="88" y="40">3</text><text font-family="geogebra-sans-serif, sans-serif" font-size="12px" font-style="normal" font-weight="normal" text-decoration="normal" dominant-baseline="alphabetic" fill="rgb(0, 0, 0)" fill-opacity="1" stroke="none" text-anchor="start" x="88" y="1190">0</text><text font-family="geogebra-sans-serif, sans-serif" font-size="12px" font-style="normal" font-weight="normal" text-decoration="normal" dominant-baseline="alphabetic" fill="rgb(0, 0, 0)" fill-opacity="1" stroke="none" text-anchor="start" x="88" y="1190">0</text><path fill="none" stroke="rgb(0, 0, 0)" stroke-dasharray="11,8" stroke-linejoin="round" stroke-miterlimit="10" stroke-opacity="1" stroke-width="3" d="M 431.452 495.335 L 1190.04 302.198" paint-order="fill stroke markers" /><path fill="none" stroke="rgb(0, 0, 0)" stroke-linecap="round" stroke-linejoin="round" stroke-miterlimit="10" stroke-opacity="1" stroke-width="5" d="M 102.42 1174.74 L 418.375 522.335" paint-order="fill stroke markers" /><path fill="rgb(0, 0, 0)" fill-opacity="1" fill-rule="evenodd" stroke="none" d="M 431.452 495.335 L 425.126 525.604 L 411.625 519.066 Z" paint-order="stroke fill markers" /><path fill="none" stroke="rgb(0, 0, 0)" stroke-linecap="round" stroke-linejoin="round" stroke-miterlimit="10" stroke-opacity="1" stroke-width="5" d="M 102.42 1174.74 L 1166.64 320.971" paint-order="fill stroke markers" /><path fill="rgb(0, 0, 0)" fill-opacity="1" fill-rule="evenodd" stroke="none" d="M 1190.04 302.198 L 1171.33 326.821 L 1161.94 315.121 Z" paint-order="stroke fill markers" /><path fill="none" stroke="rgb(0, 0, 0)" stroke-linecap="round" stroke-linejoin="round" stroke-miterlimit="10" stroke-opacity="1" stroke-width="6.5" d="M 431.452 495.335 L 640.562 442.095" paint-order="fill stroke markers" /><path fill="rgb(0, 0, 0)" fill-opacity="1" fill-rule="evenodd" stroke="none" d="M 678.357 432.473 L 642.968 451.544 L 638.157 432.647 Z" paint-order="stroke fill markers" /><path fill="rgb(77, 77, 255)" fill-opacity="1" stroke="none" d="M 1197.04 302.198 C 1197.04 306.064 1193.9 309.198 1190.04 309.198 C 1186.17 309.198 1183.04 306.064 1183.04 302.198 C 1183.04 298.332 1186.17 295.198 1190.04 295.198 C 1193.9 295.198 1197.04 298.332 1197.04 302.198 Z" paint-order="stroke fill markers" /><path fill="none" stroke="rgb(0, 0, 0)" stroke-linecap="round" stroke-linejoin="round" stroke-miterlimit="10" stroke-opacity="1" d="M 1197.04 302.198 C 1197.04 306.064 1193.9 309.198 1190.04 309.198 C 1186.17 309.198 1183.04 306.064 1183.04 302.198 C 1183.04 298.332 1186.17 295.198 1190.04 295.198 C 1193.9 295.198 1197.04 298.332 1197.04 302.198 Z" paint-order="fill stroke markers" /><path fill="rgb(77, 77, 255)" fill-opacity="1" stroke="none" d="M 438.452 495.335 C 438.452 499.201 435.318 502.335 431.452 502.335 C 427.586 502.335 424.452 499.201 424.452 495.335 C 424.452 491.469 427.586 488.335 431.452 488.335 C 435.318 488.335 438.452 491.469 438.452 495.335 Z" paint-order="stroke fill markers" /><path fill="none" stroke="rgb(0, 0, 0)" stroke-linecap="round" stroke-linejoin="round" stroke-miterlimit="10" stroke-opacity="1" d="M 438.452 495.335 C 438.452 499.201 435.318 502.335 431.452 502.335 C 427.586 502.335 424.452 499.201 424.452 495.335 C 424.452 491.469 427.586 488.335 431.452 488.335 C 435.318 488.335 438.452 491.469 438.452 495.335 Z" paint-order="fill stroke markers" /><g fill="rgb(0, 0, 0)" transform="scale(67) translate(3.43284 11.2624)"><path fill="" stroke="none" d="M 0.089 -0.23 Q 0.059 -0.235 0.056 -0.25 Q 0.056 -0.27 0.089 -0.27 L 0.858 -0.27 Q 0.79 -0.32 0.756 -0.399 L 0.755 -0.4 Q 0.75 -0.413 0.75 -0.416 Q 0.75 -0.428 0.765 -0.428 Q 0.776 -0.428 0.782 -0.414 Q 0.826 -0.315 0.918 -0.268 L 0.919 -0.268 L 0.92 -0.267 L 0.921 -0.267 Q 0.928 -0.263 0.935 -0.26 Q 0.939 -0.26 0.942 -0.25 Q 0.942 -0.243 0.933 -0.238 Q 0.931 -0.238 0.928 -0.236 Q 0.829 -0.189 0.783 -0.086 L 0.783 -0.086 Q 0.782 -0.085 0.781 -0.082 Q 0.776 -0.072 0.765 -0.072 Q 0.75 -0.072 0.75 -0.084 Q 0.75 -0.099 0.779 -0.144 Q 0.812 -0.196 0.858 -0.23 L 0.858 -0.23 Z" paint-order="stroke fill markers" /><g transform="translate(-3.43284 -11.2624)"><g transform="translate(3.53006 11.8792)"><path fill="" stroke="none" d="M 0.628 -0.569 L 0.268 0.004 Q 0.252 0.021 0.24 0.022 Q 0.226 0.022 0.222 0.01 Q 0.221 0.006 0.22 -0.001 L 0.141 -0.618 Q 0.138 -0.641 0.127 -0.646 Q 0.116 -0.652 0.081 -0.652 Q 0.058 -0.652 0.056 -0.664 Q 0.056 -0.683 0.075 -0.683 L 0.128 -0.681 L 0.129 -0.681 L 0.182 -0.68 L 0.184 -0.68 L 0.307 -0.683 L 0.308 -0.683 Q 0.322 -0.683 0.322 -0.672 Q 0.314 -0.653 0.297 -0.652 Q 0.233 -0.652 0.228 -0.622 L 0.296 -0.093 L 0.603 -0.581 L 0.616 -0.609 Q 0.618 -0.615 0.618 -0.619 Q 0.618 -0.649 0.572 -0.652 Q 0.556 -0.652 0.556 -0.664 Q 0.556 -0.683 0.575 -0.683 L 0.673 -0.68 L 0.674 -0.68 L 0.754 -0.683 L 0.756 -0.683 Q 0.769 -0.683 0.769 -0.671 Q 0.769 -0.653 0.756 -0.652 Q 0.704 -0.649 0.674 -0.624 Q 0.663 -0.615 0.652 -0.602 Q 0.64 -0.588 0.628 -0.569 Z" paint-order="stroke fill markers" /></g></g></g><g fill="rgb(0, 0, 0)" transform="scale(67) translate(11.0896 10.5758)"><path fill="" stroke="none" d="M 0.089 -0.23 Q 0.059 -0.235 0.056 -0.25 Q 0.056 -0.27 0.089 -0.27 L 0.858 -0.27 Q 0.79 -0.32 0.756 -0.399 L 0.755 -0.4 Q 0.75 -0.413 0.75 -0.416 Q 0.75 -0.428 0.765 -0.428 Q 0.776 -0.428 0.782 -0.414 Q 0.826 -0.315 0.918 -0.268 L 0.919 -0.268 L 0.92 -0.267 L 0.921 -0.267 Q 0.928 -0.263 0.935 -0.26 Q 0.939 -0.26 0.942 -0.25 Q 0.942 -0.243 0.933 -0.238 Q 0.931 -0.238 0.928 -0.236 Q 0.829 -0.189 0.783 -0.086 L 0.783 -0.086 Q 0.782 -0.085 0.781 -0.082 Q 0.776 -0.072 0.765 -0.072 Q 0.75 -0.072 0.75 -0.084 Q 0.75 -0.099 0.779 -0.144 Q 0.812 -0.196 0.858 -0.23 L 0.858 -0.23 Z" paint-order="stroke fill markers" /><g transform="translate(-11.0896 -10.5758)"><g transform="translate(11.2125 11.1926)"><path fill="" stroke="none" d="M 0.72 -0.659 L 0.161 -0.034 L 0.332 -0.034 Q 0.467 -0.034 0.527 -0.104 Q 0.563 -0.147 0.594 -0.242 Q 0.602 -0.265 0.611 -0.267 Q 0.624 -0.267 0.624 -0.256 L 0.62 -0.241 L 0.549 -0.02 Q 0.544 -0.003 0.536 -0.001 L 0.536 -0.001 L 0.535 -0.001 Q 0.531 0 0.518 0 L 0.083 0 Q 0.06 0 0.058 -0.009 L 0.062 -0.027 L 0.062 -0.027 L 0.621 -0.652 L 0.458 -0.652 Q 0.322 -0.652 0.264 -0.576 L 0.263 -0.575 L 0.263 -0.575 L 0.263 -0.575 L 0.262 -0.574 Q 0.234 -0.537 0.212 -0.468 Q 0.206 -0.459 0.199 -0.458 Q 0.187 -0.458 0.187 -0.469 Q 0.187 -0.476 0.19 -0.483 L 0.245 -0.663 Q 0.25 -0.68 0.258 -0.682 Q 0.262 -0.683 0.276 -0.683 L 0.698 -0.683 Q 0.721 -0.683 0.723 -0.674 Q 0.723 -0.671 0.72 -0.659 Z" paint-order="stroke fill markers" /></g></g></g><g fill="rgb(0, 0, 0)" transform="scale(67) translate(7.73134 5.91911)"><path fill="" stroke="none" d="M 0.089 -0.23 Q 0.059 -0.235 0.056 -0.25 Q 0.056 -0.27 0.089 -0.27 L 0.858 -0.27 Q 0.79 -0.32 0.756 -0.399 L 0.755 -0.4 Q 0.75 -0.413 0.75 -0.416 Q 0.75 -0.428 0.765 -0.428 Q 0.776 -0.428 0.782 -0.414 Q 0.826 -0.315 0.918 -0.268 L 0.919 -0.268 L 0.92 -0.267 L 0.921 -0.267 Q 0.928 -0.263 0.935 -0.26 Q 0.939 -0.26 0.942 -0.25 Q 0.942 -0.243 0.933 -0.238 Q 0.931 -0.238 0.928 -0.236 Q 0.829 -0.189 0.783 -0.086 L 0.783 -0.086 Q 0.782 -0.085 0.781 -0.082 Q 0.776 -0.072 0.765 -0.072 Q 0.75 -0.072 0.75 -0.084 Q 0.75 -0.099 0.779 -0.144 Q 0.812 -0.196 0.858 -0.23 L 0.858 -0.23 Z" paint-order="stroke fill markers" /><g transform="translate(-7.73134 -5.91911)"><g transform="translate(8.09245 6.52041)"><path fill="" stroke="none" d="M 0.192 -0.616 Q 0.192 -0.585 0.164 -0.57 Q 0.152 -0.563 0.138 -0.563 Q 0.105 -0.563 0.09 -0.594 Q 0.085 -0.605 0.085 -0.616 Q 0.085 -0.647 0.113 -0.662 Q 0.125 -0.669 0.139 -0.669 Q 0.172 -0.669 0.187 -0.638 Q 0.192 -0.627 0.192 -0.616 Z" paint-order="stroke fill markers" /></g><g transform="translate(7.82856 6.77319)"><path fill="rgb(0, 0, 0)" stroke="none" d="M 0.628 -0.569 L 0.268 0.004 Q 0.252 0.021 0.24 0.022 Q 0.226 0.022 0.222 0.01 Q 0.221 0.006 0.22 -0.001 L 0.141 -0.618 Q 0.138 -0.641 0.127 -0.646 Q 0.116 -0.652 0.081 -0.652 Q 0.058 -0.652 0.056 -0.664 Q 0.056 -0.683 0.075 -0.683 L 0.128 -0.681 L 0.129 -0.681 L 0.182 -0.68 L 0.184 -0.68 L 0.307 -0.683 L 0.308 -0.683 Q 0.322 -0.683 0.322 -0.672 Q 0.314 -0.653 0.297 -0.652 Q 0.233 -0.652 0.228 -0.622 L 0.296 -0.093 L 0.603 -0.581 L 0.616 -0.609 Q 0.618 -0.615 0.618 -0.619 Q 0.618 -0.649 0.572 -0.652 Q 0.556 -0.652 0.556 -0.664 Q 0.556 -0.683 0.575 -0.683 L 0.673 -0.68 L 0.674 -0.68 L 0.754 -0.683 L 0.756 -0.683 Q 0.769 -0.683 0.769 -0.671 Q 0.769 -0.653 0.756 -0.652 Q 0.704 -0.649 0.674 -0.624 Q 0.663 -0.615 0.652 -0.602 Q 0.64 -0.588 0.628 -0.569 Z" paint-order="stroke fill markers" /></g></g></g><text font-family="geogebra-sans-serif, sans-serif" font-size="22px" font-style="normal" font-weight="normal" text-decoration="normal" dominant-baseline="alphabetic" fill="rgb(0, 0, 0)" fill-opacity="1" stroke="none" text-anchor="start" x="783" y="429">Visierlinie</text><g transform="scale(35)"><g transform="translate(11.3429 14.3119)"><path fill="rgb(77, 77, 255)" stroke="none" d="M 0.628 -0.569 L 0.268 0.004 Q 0.252 0.021 0.24 0.022 Q 0.226 0.022 0.222 0.01 Q 0.221 0.006 0.22 -0.001 L 0.141 -0.618 Q 0.138 -0.641 0.127 -0.646 Q 0.116 -0.652 0.081 -0.652 Q 0.058 -0.652 0.056 -0.664 Q 0.056 -0.683 0.075 -0.683 L 0.128 -0.681 L 0.129 -0.681 L 0.182 -0.68 L 0.184 -0.68 L 0.307 -0.683 L 0.308 -0.683 Q 0.322 -0.683 0.322 -0.672 Q 0.314 -0.653 0.297 -0.652 Q 0.233 -0.652 0.228 -0.622 L 0.296 -0.093 L 0.603 -0.581 L 0.616 -0.609 Q 0.618 -0.615 0.618 -0.619 Q 0.618 -0.649 0.572 -0.652 Q 0.556 -0.652 0.556 -0.664 Q 0.556 -0.683 0.575 -0.683 L 0.673 -0.68 L 0.674 -0.68 L 0.754 -0.683 L 0.756 -0.683 Q 0.769 -0.683 0.769 -0.671 Q 0.769 -0.653 0.756 -0.652 Q 0.704 -0.649 0.674 -0.624 Q 0.663 -0.615 0.652 -0.602 Q 0.64 -0.588 0.628 -0.569 Z" paint-order="stroke fill markers" /></g></g><g transform="scale(35)"><g transform="translate(34.2571 8.96905)"><path fill="rgb(77, 77, 255)" stroke="none" d="M 0.72 -0.659 L 0.161 -0.034 L 0.332 -0.034 Q 0.467 -0.034 0.527 -0.104 Q 0.563 -0.147 0.594 -0.242 Q 0.602 -0.265 0.611 -0.267 Q 0.624 -0.267 0.624 -0.256 L 0.62 -0.241 L 0.549 -0.02 Q 0.544 -0.003 0.536 -0.001 L 0.536 -0.001 L 0.535 -0.001 Q 0.531 0 0.518 0 L 0.083 0 Q 0.06 0 0.058 -0.009 L 0.062 -0.027 L 0.062 -0.027 L 0.621 -0.652 L 0.458 -0.652 Q 0.322 -0.652 0.264 -0.576 L 0.263 -0.575 L 0.263 -0.575 L 0.263 -0.575 L 0.262 -0.574 Q 0.234 -0.537 0.212 -0.468 Q 0.206 -0.459 0.199 -0.458 Q 0.187 -0.458 0.187 -0.469 Q 0.187 -0.476 0.19 -0.483 L 0.245 -0.663 Q 0.25 -0.68 0.258 -0.682 Q 0.262 -0.683 0.276 -0.683 L 0.698 -0.683 Q 0.721 -0.683 0.723 -0.674 Q 0.723 -0.671 0.72 -0.659 Z" paint-order="stroke fill markers" /></g></g></g></g></svg>